<svg xmlns="http://www.w3.org/2000/svg" width="345.671" height="297.899" viewBox="0 0 345.671 297.899"><g transform="translate(0 0)"><path d="M0,590.118a.782.782,0,0,0,.784.784h344.1a.784.784,0,1,0,0-1.568H.784A.782.782,0,0,0,0,590.118Z" transform="translate(0 -295.236)" fill="#3f3c57"/><g transform="translate(53.887 0)"><path d="M207.87,63.441l3.742,17.076-7.96,23.768L190.829,78.748l1.779-14.815Z" transform="translate(-149.486 -31.782)" fill="#fdb4b4"/><rect width="22.141" height="26.752" transform="translate(40.68 47.85)" fill="#0460d8"/><circle cx="15.121" cy="15.121" r="15.121" transform="translate(38.595 10.019)" fill="#fdb4b4"/><path d="M183.872,36.383S172.6,15.567,182.764,5.55s18.32-3.416,18.32-3.416l4.658-.188s.972,3.666,2.538,1.681,4.4,5.243,4.4,5.243c5.254,9.463-12.96,11.583-12.96,11.583s1.315,4.19-.022,5.067-4.909,4.178-4.909,4.178l-3.2,2.415-1.9-2.895s-1.985-1.567-2.987-.909.377,9.317.377,9.317l-3.207-1.243h0Z" transform="translate(-143.318 0)" fill="#2e2e41"/><path d="M147.095,379.779l-5.781,86.235,14.212.482L174.314,380.5Z" transform="translate(-124.681 -190.256)" fill="#2e2e41"/><path d="M216.12,378.814l-5.781,86.235,14.211.482,18.789-85.994Z" transform="translate(-159.26 -189.773)" fill="#2e2e41"/><path d="M141.732,251.723,149.3,157.8l-11.6-48.907a14.533,14.533,0,0,1,10.65-16.025L159.7,89.856l5.025-5.025,11.43,25.24,7.138-25.221,5.567,4.049,16.511,7.285-.008.171-2.648,59.08,5.912,95.452-.262,0-66.632.833h0Z" transform="translate(-122.8 -42.497)" fill="#e8e9ea"/><path d="M216.153,550.619l4.115,12.285s16.1,2.189,16.35,7.173-21.88,2.1-34.838,2.75-2.172-13.382-2.172-13.382l1.381-8.064,15.164-.762h0Z" transform="translate(-151.775 -275.841)" fill="#2e2e41"/><path d="M148.81,548.847l4.115,12.285s16.1,2.189,16.35,7.173-21.88,2.1-34.838,2.75-2.172-13.382-2.172-13.382l1.381-8.064,15.164-.762h0Z" transform="translate(-118.039 -274.954)" fill="#2e2e41"/><path d="M127.527,285.788a15.2,15.2,0,0,1,1.191-7.083l-3.071-25.194,12.031-1.111,1.82,25.676a15.2,15.2,0,0,1,2,6.895c.354,6.066-2.488,11.165-6.347,11.39s-7.274-4.508-7.627-10.573h0Z" transform="translate(-116.832 -126.444)" fill="#fdb4b4"/><path d="M280.576,293.311a15.2,15.2,0,0,1,1.268-7.069l-2.8-25.226,12.042-.98,1.54,25.694a15.2,15.2,0,0,1,1.929,6.916c.288,6.07-2.609,11.137-6.471,11.32s-7.225-4.587-7.512-10.655h0Z" transform="translate(-193.681 -130.269)" fill="#fdb4b4"/><path d="M119.212,201.991l-.041-.217-6.27-33.642,7.409-54.782a9.3,9.3,0,1,1,18.423,2.5l-5.576,41.086,3.511,43.946-17.456,1.114Z" transform="translate(-110.447 -52.751)" fill="#e8e9ea"/><path d="M261.7,201.307l-12.606-84.148A9.293,9.293,0,0,1,256.2,105.7a9.3,9.3,0,0,1,10.869,6.726l12.111,87.822L261.7,201.307h0Z" transform="translate(-178.517 -52.856)" fill="#e8e9ea"/><circle cx="1.548" cy="1.548" r="1.548" transform="translate(52.176 72.171)" fill="#d6d7d8"/><circle cx="1.548" cy="1.548" r="1.548" transform="translate(52.176 83.889)" fill="#d6d7d8"/><circle cx="1.548" cy="1.548" r="1.548" transform="translate(52.176 95.606)" fill="#d6d7d8"/><circle cx="1.548" cy="1.548" r="1.548" transform="translate(52.176 107.324)" fill="#d6d7d8"/><circle cx="1.548" cy="1.548" r="1.548" transform="translate(52.176 119.042)" fill="#d6d7d8"/><circle cx="1.548" cy="1.548" r="1.548" transform="translate(52.176 130.76)" fill="#d6d7d8"/><circle cx="1.548" cy="1.548" r="1.548" transform="translate(52.176 142.478)" fill="#d6d7d8"/><circle cx="1.548" cy="1.548" r="1.548" transform="translate(52.176 154.196)" fill="#d6d7d8"/><path d="M161.709,274.1l-29.283-3.9-.564-.075L116.9,235.611l-8.913-20.545H131.2Z" transform="translate(-107.983 -107.741)" fill="#0460d8"/></g><g transform="translate(194.373 14.196)"><path d="M447.993,60.725l18.618-10.2V79.667H445.079Z" transform="translate(-417.343 -39.508)" fill="#2e2e41"/><path d="M477.8,83.506l1.718,14.306-12.383,24.66L459.451,99.52l3.614-16.49Z" transform="translate(-424.542 -55.792)" fill="#fdb4b4"/><rect width="21.382" height="25.834" transform="translate(34.237 42.874)" fill="#0460d8"/><path d="M509.909,388.514l5.583,83.276-13.724.465-18.144-83.043Z" transform="translate(-436.652 -208.829)" fill="#2e2e41"/><path d="M443.253,387.582l5.583,83.276-13.724.465L416.967,388.28Z" transform="translate(-403.259 -208.362)" fill="#2e2e41"/><path d="M477.256,263.473h-.327l-87.43-.286.078-.309,22.478-89.058-5.631-44.945a19.154,19.154,0,0,1,11.345-20.031l2.835-1.251,5.386-3.916,6.89,24.345,11.033-24.364,4.86,4.859,10.961,2.908a14.039,14.039,0,0,1,10.3,15.462l-.012.049L453.278,174.7l23.978,88.775Z" transform="translate(-389.499 -66.125)" fill="#e8e9ea"/><path d="M435.25,553.492l14.644.736,1.334,7.787s10.417,13.552-2.1,12.923-33.885,2.157-33.643-2.656,15.789-6.927,15.789-6.927l3.974-11.863h0Z" transform="translate(-402.517 -291.477)" fill="#2e2e41"/><path d="M500.282,551.781l14.644.736,1.333,7.787s10.417,13.552-2.1,12.923-33.885,2.157-33.643-2.656,15.789-6.927,15.789-6.927l3.974-11.863h0Z" transform="translate(-435.096 -290.62)" fill="#2e2e41"/><path d="M533.419,296.037h0c-.341,5.856-3.639,10.427-7.366,10.21s-6.471-5.141-6.129-11a14.68,14.68,0,0,1,1.936-6.658l1.757-24.8,11.618,1.073-2.966,24.33a14.682,14.682,0,0,1,1.15,6.84h0Z" transform="translate(-454.823 -146.348)" fill="#fdb4b4"/><path d="M413.775,291.372h0c-.465,5.848-3.86,10.348-7.581,10.051s-6.36-5.277-5.894-11.127a14.682,14.682,0,0,1,2.077-6.615l2.285-24.752,11.593,1.32-3.483,24.261a14.682,14.682,0,0,1,1,6.863h0Z" transform="translate(-394.883 -143.911)" fill="#fdb4b4"/><path d="M531.72,215.117l-16.873-1.077.021-.253,3.37-42.193-5.384-39.675a8.985,8.985,0,0,1,8.187-10.165h0a8.988,8.988,0,0,1,9.621,7.753l7.155,52.9-.007.039-6.088,32.667Z" transform="translate(-451.253 -75.177)" fill="#e8e9ea"/><path d="M416.02,212.744l-16.9-1.022.037-.267,11.654-84.521a8.992,8.992,0,0,1,10.512-6.532,8.985,8.985,0,0,1,6.866,11.1L416.02,212.744Z" transform="translate(-394.319 -74.42)" fill="#e8e9ea"/><circle cx="1.495" cy="1.495" r="1.495" transform="translate(41.527 66.36)" fill="#d6d7d8"/><circle cx="1.495" cy="1.495" r="1.495" transform="translate(41.527 77.676)" fill="#d6d7d8"/><circle cx="1.495" cy="1.495" r="1.495" transform="translate(41.527 88.992)" fill="#d6d7d8"/><circle cx="1.495" cy="1.495" r="1.495" transform="translate(41.527 100.308)" fill="#d6d7d8"/><circle cx="1.495" cy="1.495" r="1.495" transform="translate(41.527 111.623)" fill="#d6d7d8"/><circle cx="1.495" cy="1.495" r="1.495" transform="translate(41.527 122.939)" fill="#d6d7d8"/><circle cx="1.495" cy="1.495" r="1.495" transform="translate(41.527 134.255)" fill="#d6d7d8"/><circle cx="1.495" cy="1.495" r="1.495" transform="translate(41.527 145.571)" fill="#d6d7d8"/><circle cx="13.979" cy="13.979" r="13.979" transform="translate(31.311 7.057)" fill="#fdb4b4"/><path d="M462.727,33.165c.67,1.362-.392,3.064-1.8,3.637a8.433,8.433,0,0,1-4.493.1,8.324,8.324,0,0,0-4.492.118c-1.814.754-2.836,2.646-3.717,4.4l-4.934,9.833a11.845,11.845,0,0,0-1.641,5.066c-.028,3.289,2.58,5.917,3.984,8.891a12.707,12.707,0,0,1-9.958,18.037,5.41,5.41,0,0,1-3.093-.362,2.562,2.562,0,0,1-1.484-2.552c.341-2.032,3.446-2.507,4.016-4.487a3.286,3.286,0,0,0-.94-2.945c-.711-.807-1.61-1.437-2.288-2.272a5.919,5.919,0,0,1-.243-6.929c.837-1.193,2.132-2.08,2.674-3.433a7.2,7.2,0,0,0,.119-3.681l-.673-4.742a13.289,13.289,0,0,1,0-5.544c1.186-4.1,5.816-6.026,8.532-9.32,1.262-1.531,2.111-3.371,3.405-4.874A10.547,10.547,0,0,1,462.754,33.6" transform="translate(-410.11 -28.448)" fill="#2e2e41"/><path d="M487.28,38.418a1.5,1.5,0,0,0-.74,1.832,5.059,5.059,0,0,0,1.183,1.8,21.858,21.858,0,0,1,3.029,23.072c-.941,1.969-2.2,3.821-2.7,5.944-.369,1.544-.349,3.238-1.206,4.575-.872,1.361-2.6,2.273-2.771,3.88a3.014,3.014,0,0,0,1.362,2.638,7.751,7.751,0,0,0,2.885,1.107,40.141,40.141,0,0,0,8.018.954,6.2,6.2,0,0,0,2.592-.354,2.349,2.349,0,0,0,1.5-1.989c.007-.691-.391-1.328-.442-2.017-.152-2.064,2.626-3.163,3.167-5.161.356-1.314-.345-2.665-1.092-3.8a6.945,6.945,0,0,1-1.581-3.693c.018-1.3.835-2.45,1.153-3.714A9.947,9.947,0,0,0,501,58.2l-1.366-4.389-1.452-4.665c-.845-2.715-1.732-5.508-3.56-7.686s-4.858-3.6-7.559-2.716" transform="translate(-436.871 -33.442)" fill="#2e2e41"/></g><g transform="translate(215.745 52.995)"><path d="M506.279,126.542l-.958-.279c2-6.844-2.308-19.617-2.351-19.745l.944-.322c.183.536,4.449,13.2,2.365,20.347Z" transform="translate(-467.715 -106.195)" fill="#3f3c57"/><circle cx="4.169" cy="4.169" r="4.169" transform="translate(33.916 19.87)" fill="#3f3c57"/><path d="M443.016,157.528h-2.528a.5.5,0,1,1,0-1h2.528a2.6,2.6,0,0,0,2.6-2.609l-.031-15.573a6.134,6.134,0,1,0-12.268,0l.031,14.577a2.613,2.613,0,0,0,2.584,2.6l1.735.013a.5.5,0,0,1,0,1h0l-1.735-.013a3.614,3.614,0,0,1-3.575-3.595l-.031-14.577a7.132,7.132,0,1,1,14.264,0l.031,15.572a3.6,3.6,0,0,1-3.6,3.609Z" transform="translate(-432.324 -118.729)" fill="#3f3c57"/><circle cx="1.769" cy="1.769" r="1.769" transform="translate(3.576 35.536)" fill="#3f3c57"/><circle cx="1.769" cy="1.769" r="1.769" transform="translate(6.395 36.531)" fill="#3f3c57"/></g><path d="M240.8,111.677l-.958-.279c2-6.844-2.26-19.815-2.3-19.943l1.2.9c.183.536,4.147,12.175,2.064,19.32Z" transform="translate(-118.997 -45.816)" fill="#3f3c57"/><path d="M176,114.312l.958-.279c-2-6.844,2.308-19.617,2.351-19.745l-1.025.687c-.183.536-4.368,12.194-2.285,19.338Z" transform="translate(-87.879 -47.235)" fill="#3f3c57"/><circle cx="4.169" cy="4.169" r="4.169" transform="translate(117.152 65.385)" fill="#3f3c57"/><path d="M174.754,159.374h-2.528a.5.5,0,1,1,0-1h2.528a2.6,2.6,0,0,0,2.6-2.609l-.031-15.573a6.134,6.134,0,1,0-12.268,0l.031,14.577a2.613,2.613,0,0,0,2.584,2.6l1.735.013a.5.5,0,0,1,0,1h0l-1.735-.013a3.614,3.614,0,0,1-3.575-3.595l-.031-14.577a7.132,7.132,0,1,1,14.264,0l.031,15.572a3.6,3.6,0,0,1-3.6,3.609Z" transform="translate(-82.19 -66.659)" fill="#3f3c57"/><circle cx="1.769" cy="1.769" r="1.769" transform="translate(85.448 89.452)" fill="#3f3c57"/><circle cx="1.769" cy="1.769" r="1.769" transform="translate(88.268 90.447)" fill="#3f3c57"/></g></svg>