<svg xmlns="http://www.w3.org/2000/svg" width="337.901" height="363.681" viewBox="0 0 337.901 363.681"><g transform="translate(0.001)"><path d="M350.748,308.4H96.759a8.546,8.546,0,0,1-8.536-8.536V93.053a8.546,8.546,0,0,1,8.536-8.536H350.748a8.546,8.546,0,0,1,8.536,8.536V299.866A8.546,8.546,0,0,1,350.748,308.4Z" transform="translate(-32.887 -31.505)" fill="#e6e6e6"/><path d="M329.492,306.069H105.941a8.546,8.546,0,0,1-8.536-8.536V102.24a8.546,8.546,0,0,1,8.536-8.536H348.413a8.546,8.546,0,0,1,8.536,8.536V278.612a27.488,27.488,0,0,1-27.456,27.457Z" transform="translate(-36.31 -34.93)" fill="#fff"/><path d="M307.505,161.49H205.421a2.2,2.2,0,0,1,0-4.4H307.5a2.2,2.2,0,1,1,0,4.4Z" transform="translate(-75.754 -58.557)" fill="#0460d8"/><path d="M359.182,198.937H205.421a2.2,2.2,0,0,1,0-4.4H359.182a2.2,2.2,0,1,1,0,4.4Z" transform="translate(-75.754 -72.516)" fill="#e6e6e6"/><path d="M359.182,236.384H205.421a2.2,2.2,0,0,1,0-4.4H359.182a2.2,2.2,0,1,1,0,4.4Z" transform="translate(-75.754 -86.475)" fill="#e6e6e6"/><path d="M359.182,273.831H205.421a2.2,2.2,0,0,1,0-4.4H359.182a2.2,2.2,0,1,1,0,4.4Z" transform="translate(-75.754 -100.434)" fill="#e6e6e6"/><path d="M359.182,311.278H205.421a2.2,2.2,0,0,1,0-4.4H359.182a2.2,2.2,0,1,1,0,4.4Z" transform="translate(-75.754 -114.393)" fill="#e6e6e6"/><path d="M434.222,360.319a11.147,11.147,0,1,1,11.147-11.147h0A11.147,11.147,0,0,1,434.222,360.319Z" transform="translate(-157.709 -126.005)" fill="#0460d8"/><path d="M443.849,351.968l-3.16-4.613a.937.937,0,1,0-1.549,1.055l0,0,2.044,2.983h-8.007a1.1,1.1,0,1,0-.007,2.2h8.114l-2.144,3.13a.937.937,0,0,0,1.546,1.059l3.16-4.613A1.237,1.237,0,0,0,443.849,351.968Z" transform="translate(-161.064 -129.33)" fill="#fff"/><path d="M362.842,34.546H71a1.133,1.133,0,0,1,0-2.266H362.842a1.133,1.133,0,0,1,0,2.266Z" transform="translate(-26.051 -12.033)" fill="#cacaca"/><path d="M123.888,375.994a3.984,3.984,0,0,0,0-6.109L121.474,349l-7.674,1.777,4.265,19.8a4.006,4.006,0,0,0,5.823,5.42Z" transform="translate(-42.421 -130.096)" fill="#ffb6b6"/><path d="M120.789,321.868,111.9,327.41s-.541,3.248-1.152-4.915c-.064-.852.531-2.337.465-3.211-.074-.987-2.9-1.436-2.974-2.434-.053-.711.764-1.343.711-2.052-.08-1.074-.159-2.141-.237-3.191-.065-.879-1.039-1.436-1.1-2.284s.784-2,.724-2.812c-.448-6.077,1.1-21.366,1.1-21.677a4.434,4.434,0,0,0-.944-2.127l.474-1.418-.314-2.661a16.246,16.246,0,0,1,2.095-10.075h0l2.256-1.477,10.411,17.511c-4.381,15.153-7.241,21.1-2.631,37.282Z" transform="translate(-40.115 -99.557)" fill="#0460d8"/><path d="M117.567,550.265h5.374l2.558-20.729h-7.932Z" transform="translate(-43.825 -197.394)" fill="#ffb6b6"/><path d="M114.128,556.412l8.586-.512v3.679l8.163,5.638a2.3,2.3,0,0,1-1.306,4.189H119.349l-1.762-3.639L116.9,569.4h-3.854l1.083-12.992Z" transform="translate(-42.14 -207.221)" fill="#2f2e41"/><path d="M165.7,550.265h5.374l2.557-20.729H165.7Z" transform="translate(-61.766 -197.394)" fill="#ffb6b6"/><path d="M162.256,556.412l8.586-.512v3.679L179,565.216A2.3,2.3,0,0,1,177.7,569.4H167.477l-1.762-3.639-.688,3.639h-3.854Z" transform="translate(-60.08 -207.221)" fill="#2f2e41"/><path d="M113.063,453.924h.021l1.034-49.366a8.813,8.813,0,0,1,.116-8.328l.148-.268L114,394.183a11.329,11.329,0,0,1,.647-6.818l.964-31.44c-3.445-22.325,12.972-36.884,12.972-36.884h24.592l5.28,18.14c3.49,34.005,2.857,82.8-2.682,114.908l.151.076a1.276,1.276,0,0,1,.521,1.682c-.256.741-.9,1.19-1.448,1l-12.988-.452a1.276,1.276,0,0,1-.521-1.682c.256-.741.9-1.19,1.448-1l.883.447-.911-1.855a6.918,6.918,0,0,1,.563-7.048h0l-.16-4.083h0a6.219,6.219,0,0,1-1.217-5.86l.876-2.859-1.035-26.48.209-5.941-.431-6.74-1.991-30.315-7.535,37.278-7.7,56.041a1.412,1.412,0,0,1,.433,1.351,1.464,1.464,0,0,1-1.45,1.114H113.025a1.423,1.423,0,0,1-1.371-1.8,1.441,1.441,0,0,1,1.408-1.039Z" transform="translate(-41.602 -118.928)" fill="#2f2e41"/><path d="M200.477,363.621a3.984,3.984,0,0,0-1.158-6l-6.341-20.044-7.2,3.2,7.948,18.625a4.006,4.006,0,0,0,6.747,4.214h0Z" transform="translate(-69.253 -125.838)" fill="#ffb6b6"/><path d="M147.846,260.771s7.232,25.592,6.9,28.178c-.675,5.331-33.908,21.719-36.38,14.426l.31-2.4c-1.249-2.5,6.369-12.408,6.739-13.7.47-1.658-1.658-7.1-1.658-7.1s1.47-4.968,1.236-8.044-.948-2.6-3.55-4.5-6.861-10.646-6.861-10.646,1.892-8.518,1.892-10.176,7.774-4.481,8.718-5.425a8.863,8.863,0,0,0,1.031-1.771c.191-.383.07-1.27.274-1.71.131-.287.587-.109.722-.4s.017-.618.148-.9c.17-.374.579-.7.74-1.053a11.288,11.288,0,0,1,1.566-2.937c.47,0,15.618,2.132,15.618,2.132a22.719,22.719,0,0,0,2.837,3.55c1.658,1.653,9.414,5.677,9.414,5.677l-9.7,16.8Z" transform="translate(-42.714 -86.71)" fill="#0460d8"/><path d="M187.224,310.577c-1.183,1.183-7.039,6.616-7.278,5.194s-.363-1.588-1.311-2.058-.948-.709-1.183-2.367-2.367-3.315-2.127-4.024.016.193.016-.521-.709-3.311-1.658-3.785-2.367-.944-1.653-2.127-6.678-36.683-6.678-36.683l6.626-13.012,4.494-.474s1.366.781,1.793,7.826c.022.357.411,1.012.427,1.4.014.324-.344.377-.334.725q0,.111.006.224c.009.345.941.6.955.933.025.6.391,4.394.431,4.952q.067.944.158,1.819a62.912,62.912,0,0,0,1.293,8.911c.627,3.136,3.227,21.453,3.227,21.453s1.892.47,1.892,2.127,2.087,4.989,1.143,6.881.944,1.423-.239,2.606Z" transform="translate(-61.638 -93.46)" fill="#0460d8"/><circle cx="11.223" cy="11.223" r="11.223" transform="translate(82.155 122.968)" fill="#ffb8b8"/><path d="M105.357,226.885q-3.563-1.263-7.125-2.53a7.172,7.172,0,0,1,1.542-1.815c2.261-1.888,5.383-2.229,8.254-2.866s6-1.943,7.048-4.691c1.092-2.857-.491-5.942-1.41-8.854a17.84,17.84,0,0,1,.464-12.494,13.907,13.907,0,0,1,9.386-7.981,11.429,11.429,0,0,1,11.416,3.986,7.039,7.039,0,0,1,8.472,3.922,5.1,5.1,0,0,1-.273,4.632,3.4,3.4,0,0,1-4.213,1.283l.828-2.1c-2.562.869-4.227,5.5-3.881,8.185s1.906,5.028,3.494,7.216,3.28,4.4,3.963,7.016c.983,3.763-.346,7.876-2.8,10.892a23.972,23.972,0,0,1-9.5,6.57,44.061,44.061,0,0,1-8.326,2.566c.51-.992,1.015-1.984,1.524-2.976l-6.047,3.658c-1.169.114-2.348.182-3.526.2a24.105,24.105,0,0,1-10.069-1.67,12.7,12.7,0,0,1-7.043-7.1,9.2,9.2,0,0,1-.51-3.258q4.17-.9,8.34-1.8Z" transform="translate(-36.164 -69.106)" fill="#2f2e41"/><path d="M267.691,565.62H246.875l-.089-.162c-.266-.483-.523-.994-.763-1.52-2.144-4.59-3.05-9.84-3.85-14.472l-.6-3.492a2.156,2.156,0,0,1,3.393-2.109q4.745,3.453,9.494,6.9c1.2.872,2.568,1.882,3.879,2.973.126-.614.259-1.231.391-1.838a2.157,2.157,0,0,1,3.939-.681l2.435,3.913c1.776,2.857,3.344,5.673,3.025,8.71a.473.473,0,0,1-.008.11,6.862,6.862,0,0,1-.353,1.462l-.075.207Z" transform="translate(-90.038 -202.581)" fill="#f0f0f0"/><path d="M198.545,578.623l-197.8.193a.747.747,0,0,1,0-1.494l197.8-.193a.747.747,0,0,1,0,1.494Z" transform="translate(0 -215.135)" fill="#cacaca"/><ellipse cx="5.304" cy="5.422" rx="5.304" ry="5.422" transform="translate(51.075 0)" fill="#3f3d56"/><ellipse cx="5.304" cy="5.422" rx="5.304" ry="5.422" transform="translate(69.398 0)" fill="#3f3d56"/><ellipse cx="5.304" cy="5.422" rx="5.304" ry="5.422" transform="translate(87.722 0)" fill="#3f3d56"/><path d="M179.124,10.384a.625.625,0,0,1-.448-.189L175.1,6.537a.627.627,0,0,1,0-.877L178.676,2a.627.627,0,1,1,.9.877l-3.15,3.22,3.15,3.22a.627.627,0,0,1-.448,1.066Z" transform="translate(-65.204 -0.676)" fill="#3f3d56"/><path d="M190.84,10.384a.627.627,0,0,1-.448-1.066l3.15-3.22-3.15-3.22a.627.627,0,0,1,.9-.877l3.579,3.658a.627.627,0,0,1,0,.877L191.289,10.2a.625.625,0,0,1-.448.189Z" transform="translate(-70.905 -0.676)" fill="#3f3d56"/><path d="M484.952,1H478.3a1.373,1.373,0,0,0-1.374,1.374V9.036a1.373,1.373,0,0,0,1.374,1.374h6.655a1.379,1.379,0,0,0,1.38-1.374V2.375A1.379,1.379,0,0,0,484.952,1Z" transform="translate(-177.781 -0.373)" fill="#3f3d56"/><path d="M458.952,1H452.3a1.373,1.373,0,0,0-1.374,1.374V9.036a1.373,1.373,0,0,0,1.374,1.374h6.655a1.379,1.379,0,0,0,1.38-1.374V2.375A1.379,1.379,0,0,0,458.952,1Z" transform="translate(-168.089 -0.373)" fill="#3f3d56"/><path d="M509.452,1.5H502.8a1.373,1.373,0,0,0-1.374,1.374V9.536a1.373,1.373,0,0,0,1.374,1.374h6.655a1.379,1.379,0,0,0,1.38-1.374V2.875A1.379,1.379,0,0,0,509.452,1.5Z" transform="translate(-186.914 -0.559)" fill="#3f3d56"/><path d="M321.691,5.541H268.5a1.675,1.675,0,1,0,0,3.349h53.2a1.675,1.675,0,0,0,0-3.349Z" transform="translate(-99.462 -2.065)" fill="#3f3d56"/></g></svg>